<?xml version="1.0" encoding="UTF-8"?>
<!-- Generator: Adobe Illustrator 24.1.2, SVG Export Plug-In . SVG Version: 6.00 Build 0)  -->
<svg version="1.1" id="Capa_1" xmlns="http://www.w3.org/2000/svg" xmlns:xlink="http://www.w3.org/1999/xlink" x="0px" y="0px" viewBox="0 0 25 25" style="enable-background:new 0 0 25 25;" xml:space="preserve">
<style type="text/css">
	.st0{fill:#848484;}
</style>
<g>
	<g>
		<rect x="2.9" y="12.1" class="st0" width="19.3" height="0.7"/>
	</g>
	<g>
		<polygon class="st0" points="20.7,15.3 17.9,12.8 17.9,12.2 20.7,9.7 21.2,10.3 18.7,12.5 21.2,14.7   "/>
	</g>
	<g>
		<polygon class="st0" points="4.5,15.3 4,14.7 6.5,12.5 4,10.3 4.5,9.7 7.3,12.2 7.3,12.8   "/>
	</g>
	<g>
		<polygon class="st0" points="13.2,12.6 12.7,12 17.9,6.8 18.4,7.3   "/>
	</g>
	<g>
		<polygon class="st0" points="16.5,9.1 16.1,8.8 16.3,5.8 17,5.9 16.9,8.3 19.3,8.2 19.4,8.9   "/>
	</g>
	<g>
		<rect x="9.3" y="6" transform="matrix(0.7142 -0.7 0.7 0.7142 -4.0085 9.5651)" class="st0" width="0.7" height="7.4"/>
	</g>
	<g>
		<polygon class="st0" points="8.8,9.1 5.9,8.9 6,8.2 8.4,8.3 8.3,5.9 9,5.8 9.2,8.8   "/>
	</g>
	<g>
		<g>
			
				<rect x="5.8" y="14.8" transform="matrix(0.7071 -0.7071 0.7071 0.7071 -7.9304 11.2864)" class="st0" width="7.6" height="0.7"/>
		</g>
		<g>
			<polygon class="st0" points="9,19 8.3,18.9 8.4,16.5 5.9,16.6 5.9,15.9 8.8,15.7 9.2,16    "/>
		</g>
	</g>
	<g>
		<g>
			<rect x="15.3" y="11.4" transform="matrix(0.7141 -0.7 0.7 0.7141 -6.1538 15.2845)" class="st0" width="0.7" height="7.6"/>
		</g>
		<g>
			<polygon class="st0" points="16.2,19 16.1,16 16.5,15.7 19.4,15.9 19.3,16.6 16.9,16.5 17,18.9    "/>
		</g>
	</g>
	<g>
		<rect x="12.1" y="2.7" class="st0" width="0.7" height="19.5"/>
	</g>
	<g>
		<polygon class="st0" points="14.7,21 12.5,18.5 10.3,21 9.7,20.5 12.2,17.7 12.8,17.7 15.3,20.5   "/>
	</g>
	<g>
		<polygon class="st0" points="12.8,7.2 12.2,7.2 9.7,4.4 10.3,3.9 12.5,6.4 14.7,3.9 15.3,4.4   "/>
	</g>
</g>
</svg>