<?xml version="1.0" encoding="UTF-8"?>
<!-- Generator: Adobe Illustrator 24.1.2, SVG Export Plug-In . SVG Version: 6.00 Build 0)  -->
<svg version="1.1" id="Capa_1" xmlns="http://www.w3.org/2000/svg" xmlns:xlink="http://www.w3.org/1999/xlink" x="0px" y="0px" viewBox="0 0 25 25" style="enable-background:new 0 0 25 25;" xml:space="preserve">
<style type="text/css">
	.st0{fill:#848484;}
</style>
<g>
	<g>
		<path class="st0" d="M21.2,22.3H3.8V2.7h17.4V22.3z M4.5,21.6h15.9V3.4H4.5V21.6z"/>
	</g>
	<g>
		<rect x="4.5" y="6.7" class="st0" width="16.3" height="0.7"/>
	</g>
	<g>
		<path class="st0" d="M17.5,5.4c-0.2,0-0.4-0.2-0.4-0.4s0.2-0.4,0.4-0.4c0.2,0,0.4,0.2,0.4,0.4C17.9,5.2,17.7,5.4,17.5,5.4z"/>
	</g>
	<g>
		<path class="st0" d="M19.1,5.4c-0.2,0-0.4-0.2-0.4-0.4s0.2-0.4,0.4-0.4c0.2,0,0.4,0.2,0.4,0.4C19.5,5.2,19.3,5.4,19.1,5.4z"/>
	</g>
	<g>
		<rect x="5.5" y="4.6" class="st0" width="5.1" height="0.7"/>
	</g>
	<g>
		<path class="st0" d="M12.4,20.5c-3.3,0-6-2.7-6-6c0-3.3,2.7-6,6-6l0,0c3.3,0,6,2.7,6,6C18.4,17.8,15.7,20.5,12.4,20.5z M12.4,9.2    c-2.9,0-5.3,2.4-5.3,5.3c0,2.9,2.4,5.3,5.3,5.3c2.9,0,5.3-2.4,5.3-5.3C17.7,11.6,15.3,9.2,12.4,9.2L12.4,9.2z"/>
	</g>
	<g>
		<path class="st0" d="M15.8,13.6h-2.5c0,0,0,0-0.1-0.1v-1.7c0-0.7-0.6-1.2-1.2-1.2h-0.4c-0.1,0-0.2,0.1-0.2,0.2l0,2.7    c0,0,0,0-0.1,0h-1.4c-0.7,0-1.2,0.6-1.2,1.2v0.4c0,0.1,0.1,0.2,0.2,0.2h2.4c0,0,0,0,0.1,0.1v1.7c0,0.7,0.6,1.2,1.2,1.2h0.4    c0.1,0,0.2-0.1,0.2-0.2l0-2.7c0,0,0,0,0.1-0.1h1.4c0.7,0,1.2-0.6,1.2-1.2v-0.4C16,13.7,15.9,13.6,15.8,13.6z"/>
	</g>
</g>
</svg>