<?xml version="1.0" encoding="UTF-8"?>
<!-- Generator: Adobe Illustrator 24.1.2, SVG Export Plug-In . SVG Version: 6.00 Build 0)  -->
<svg version="1.1" id="Capa_1" xmlns="http://www.w3.org/2000/svg" xmlns:xlink="http://www.w3.org/1999/xlink" x="0px" y="0px" viewBox="0 0 25 25" style="enable-background:new 0 0 25 25;" xml:space="preserve">
<style type="text/css">
	.st0{fill:#848484;}
</style>
<g>
	<path class="st0" d="M13.1,2.7c-1.3,0-2.3,1-2.3,2.3v10.9c-1,0.8-1.4,2-1.3,3.3c0.3,2,2.1,3.3,4,3c1.8-0.2,3.1-1.8,3.1-3.6   c0-1.1-0.5-2.1-1.3-2.8V5C15.4,3.7,14.4,2.7,13.1,2.7z M11.5,6.3V5c0-0.9,0.7-1.6,1.6-1.6c0.9,0,1.6,0.7,1.6,1.6v11.1   c0,0.1,0,0.2,0.1,0.3c0.7,0.6,1.2,1.4,1.2,2.3c0,1.6-1.3,2.9-2.9,2.9c-1.6,0-2.9-1.3-2.9-2.9c0-0.9,0.4-1.8,1.2-2.3   c0.1-0.1,0.1-0.2,0.1-0.3v-1 M11.5,7.9V7 M11.5,9.6v-1 M11.5,11.2v-1 M11.5,12.8v-1 M11.5,14.5v-1"/>
	<path class="st0" d="M13.4,17.1V5.7h-0.7v11.4c-0.9,0.2-1.4,1-1.3,1.9s1,1.4,1.9,1.3c0.9-0.2,1.4-1,1.3-1.9   C14.6,17.7,14.1,17.2,13.4,17.1z"/>
	<rect x="8.3" y="6.3" class="st0" width="1.7" height="0.7"/>
	<rect x="8.3" y="7.8" class="st0" width="1.7" height="0.7"/>
	<rect x="8.3" y="9.3" class="st0" width="1.7" height="0.7"/>
</g>
</svg>