<?xml version="1.0" encoding="utf-8"?>
<!-- Generator: Adobe Illustrator 24.1.2, SVG Export Plug-In . SVG Version: 6.00 Build 0)  -->
<svg version="1.1" id="Capa_1" xmlns="http://www.w3.org/2000/svg" xmlns:xlink="http://www.w3.org/1999/xlink" x="0px" y="0px"
	 viewBox="0 0 25 25" style="enable-background:new 0 0 25 25;" xml:space="preserve">
<style type="text/css">
	.st0{fill:#848484;}
</style>
<g>
	<path class="st0" d="M17.7,21.6c0-2.5-1.7-4.5-3.9-5.2c0.9-0.5,1.6-1.5,1.6-2.6c0-1.7-1.4-3-3-3c-1.7,0-3,1.4-3,3
		c0,1.1,0.6,2.1,1.6,2.6c-2.3,0.6-3.9,2.7-3.9,5.2V22h10.7V21.6z M10,13.8c0-1.3,1-2.3,2.3-2.3c1.3,0,2.3,1,2.3,2.3
		c0,1.3-1,2.3-2.3,2.3C11,16.1,10,15.1,10,13.8z M7.6,21.3c0.2-2.4,2.2-4.3,4.7-4.3c2.5,0,4.5,1.9,4.7,4.3H7.6z"/>
	<polygon class="st0" points="8.4,1.5 8.4,6 9.1,6 9.1,1.5 11.1,3.7 11.6,3.2 8.8,0.1 5.9,3.2 6.4,3.7 	"/>
	<polygon class="st0" points="18.2,3 17.7,2.5 15.7,4.7 15.7,0.2 15,0.2 15,4.7 13.1,2.5 12.5,3 15.4,6.1 	"/>
	<path class="st0" d="M4.9,8.4v16.4h15.2V8.4H4.9z M19.4,24.2H5.6v-15h13.8V24.2z"/>
</g>
</svg>
