<?xml version="1.0" encoding="utf-8"?>
<!-- Generator: Adobe Illustrator 24.1.2, SVG Export Plug-In . SVG Version: 6.00 Build 0)  -->
<svg version="1.1" id="Capa_1" xmlns="http://www.w3.org/2000/svg" xmlns:xlink="http://www.w3.org/1999/xlink" x="0px" y="0px"
	 viewBox="0 0 25 25" style="enable-background:new 0 0 25 25;" xml:space="preserve">
<style type="text/css">
	.st0{fill:#848484;}
</style>
<g>
	<g>
		<path class="st0" d="M19.9,20.9H5.1V0.8h14.9V20.9z M5.8,20.2h13.4V1.6H5.8V20.2z"/>
	</g>
	<g>
		<rect x="5.7" y="8.4" class="st0" width="13.8" height="0.8"/>
	</g>
	<g>
		<rect x="7.1" y="2.9" class="st0" width="0.8" height="4.3"/>
	</g>
	<g>
		<rect x="7" y="10.2" class="st0" width="0.8" height="4.3"/>
	</g>
	<g>
		<polygon class="st0" points="10,24.2 7.7,24.2 7.7,22.7 8.4,22.7 8.4,23.4 9.2,23.4 9.2,22.7 10,22.7 		"/>
	</g>
	<g>
		<polygon class="st0" points="16.9,24.2 14.6,24.2 14.6,22.7 15.4,22.7 15.4,23.4 16.2,23.4 16.2,22.7 16.9,22.7 		"/>
	</g>
	<g>
		<polygon class="st0" points="19.9,22.8 5.1,22.8 5.1,20.3 5.8,20.3 5.8,22 19.2,22 19.2,20.2 19.9,20.2 		"/>
	</g>
	<g>
		<g>
			<path class="st0" d="M15.6,6.9c0-0.3-0.3-0.6-0.6-0.6c-0.3,0-0.6,0.3-0.6,0.6c0,0.3,0.3,0.6,0.6,0.6C15.3,7.5,15.6,7.2,15.6,6.9z
				"/>
		</g>
		<g>
			<path class="st0" d="M18.2,6.9c0-0.3-0.3-0.6-0.6-0.6c-0.3,0-0.6,0.3-0.6,0.6c0,0.3,0.3,0.6,0.6,0.6C17.9,7.5,18.2,7.2,18.2,6.9z
				"/>
		</g>
	</g>
</g>
</svg>
