<?xml version="1.0" encoding="utf-8"?>
<!-- Generator: Adobe Illustrator 24.1.2, SVG Export Plug-In . SVG Version: 6.00 Build 0)  -->
<svg version="1.1" id="Capa_1" xmlns="http://www.w3.org/2000/svg" xmlns:xlink="http://www.w3.org/1999/xlink" x="0px" y="0px"
	 viewBox="0 0 25 25" style="enable-background:new 0 0 25 25;" xml:space="preserve">
<style type="text/css">
	.st0{fill:#848484;}
</style>
<path class="st0" d="M2.6,12.5c0-5.4,4.4-9.9,9.9-9.9s9.8,4.3,9.8,8.9c0,3.8-2.1,5.6-4.4,5.6c-1.8,0-2.8-0.7-3.3-1.6
	c-0.8,0.8-1.9,1.6-3.5,1.6c-2.3,0-4.1-1.7-4.1-4.3c0-3.2,2.5-5.6,5.1-5.6c1.6,0,2.6,0.8,3.2,1.7l0.3-1.4l2.2,0.3l-1,5.7
	c-0.1,0.4-0.1,0.8-0.1,1c0,1,0.7,1.6,1.8,1.6c1.6,0,3-1.5,3-4.6c0-4.1-3.8-8.1-8.9-8.1c-5.1,0-9,4.1-9,9c0,5,3.8,9,9.2,9
	c2.2,0,3.9-0.5,5.6-1.5l0.4,0.7c-1.7,1.1-3.6,1.7-6,1.7C6.9,22.4,2.6,17.9,2.6,12.5z M14.9,11.7c0-1.4-1-2.4-2.4-2.4
	c-1.6,0-3.1,1.5-3.1,3.6c0,1.6,1,2.4,2.4,2.4C13.4,15.2,14.9,13.6,14.9,11.7z"/>
</svg>
