<?xml version="1.0" encoding="utf-8"?>
<!-- Generator: Adobe Illustrator 24.1.2, SVG Export Plug-In . SVG Version: 6.00 Build 0)  -->
<svg version="1.1" id="Capa_1" xmlns="http://www.w3.org/2000/svg" xmlns:xlink="http://www.w3.org/1999/xlink" x="0px" y="0px"
	 viewBox="0 0 25 25" style="enable-background:new 0 0 25 25;" xml:space="preserve">
<style type="text/css">
	.st0{fill:#848484;}
</style>
<g>
	<path class="st0" d="M10,3.6c0-0.4,0.4-0.8,0.8-0.8s0.8,0.4,0.8,0.8s-0.4,0.8-0.8,0.8S10,4.1,10,3.6z M13.8,6
		c0.4,0,0.8-0.4,0.8-0.8s-0.4-0.8-0.8-0.8S13,4.8,13,5.2S13.4,6,13.8,6z M10.4,7.7c0.4,0,0.8-0.4,0.8-0.8s-0.4-0.8-0.8-0.8
		S9.6,6.5,9.6,6.9S9.9,7.7,10.4,7.7z M7.5,10C8,10,8.3,9.6,8.3,9.2S8,8.4,7.5,8.4S6.7,8.7,6.7,9.2S7.1,10,7.5,10z M13.4,9.3
		c0.4,0,0.8-0.4,0.8-0.8s-0.4-0.8-0.8-0.8s-0.8,0.4-0.8,0.8S12.9,9.3,13.4,9.3z M6.9,7.1c0.4,0,0.8-0.4,0.8-0.8
		c0-0.4-0.4-0.8-0.8-0.8S6.1,5.9,6.1,6.4C6.1,6.8,6.5,7.1,6.9,7.1z M12.2,11.2 M10.6,11.2 M8.2,11.2 M5,11.2"/>
	<path class="st0" d="M22.3,12.5V5.3c0-1.4-1.2-2.6-2.6-2.6c-1.3,0-2.4,0.9-2.5,2.2h0.8c0.2-0.8,0.9-1.4,1.7-1.4
		c1,0,1.8,0.8,1.8,1.8v5.8h-0.2l-18.6,0v1.4c0,3.2,1.2,5.2,2.1,6.3c0.5,0.5,1,1,1.6,1.3L7,20.3l-0.4,0.4c-0.4,0.4-0.7,1-0.8,1.6h0.8
		c0.2-0.9,1-1.6,1.9-1.6h7.9c0.9,0,1.8,0.7,1.9,1.6h0.8c-0.1-0.6-0.4-1.1-0.8-1.6L18,20.3l0.5-0.3c0.6-0.3,1.1-0.8,1.6-1.3
		C21.1,17.7,22.3,15.7,22.3,12.5z M19.5,18.2L19.5,18.2L19.5,18.2c-1,1.1-2.3,1.6-3,1.6h-8c-0.7,0-2-0.5-3-1.6
		c-0.9-1-1.9-2.8-1.9-5.7v-0.6h17.9v0.6C21.5,15.5,20.4,17.3,19.5,18.2z"/>
</g>
</svg>
