<?xml version="1.0" encoding="utf-8"?>
<!-- Generator: Adobe Illustrator 24.1.2, SVG Export Plug-In . SVG Version: 6.00 Build 0)  -->
<svg version="1.1" id="Capa_1" xmlns="http://www.w3.org/2000/svg" xmlns:xlink="http://www.w3.org/1999/xlink" x="0px" y="0px"
	 viewBox="0 0 25 25" style="enable-background:new 0 0 25 25;" xml:space="preserve">
<style type="text/css">
	.st0{fill:#848484;}
</style>
<g>
	<g>
		<g>
			<path class="st0" d="M20.6,7.7c0.3,0,0.6-0.3,0.6-0.6c0-0.3-0.3-0.6-0.6-0.6c-0.3,0-0.6,0.3-0.6,0.6C20,7.5,20.3,7.7,20.6,7.7z"
				/>
		</g>
		<g>
			<path class="st0" d="M20.6,10.2c0.3,0,0.6-0.3,0.6-0.6C21.2,9.2,21,9,20.6,9C20.3,9,20,9.2,20,9.6C20,9.9,20.3,10.2,20.6,10.2z"
				/>
		</g>
		<g>
			<path class="st0" d="M20.6,12.6c0.3,0,0.6-0.3,0.6-0.6c0-0.3-0.3-0.6-0.6-0.6c-0.3,0-0.6,0.3-0.6,0.6
				C20,12.3,20.3,12.6,20.6,12.6z"/>
		</g>
	</g>
	<g>
		<path class="st0" d="M23.3,20.6H1.7V4.4h21.7V20.6z M2.4,19.8h20.2V5.2H2.4V19.8z"/>
	</g>
	<g>
		<path class="st0" d="M18.6,18.9H3.3V6.2h15.3V18.9z M4,18.1h13.9V6.9H4V18.1z"/>
	</g>
	<g>
		<rect x="5.7" y="10.3" transform="matrix(0.7071 -0.7071 0.7071 0.7071 -5.2236 8.7541)" class="st0" width="4.5" height="0.7"/>
	</g>
	<g>
		<rect x="6.7" y="12.1" transform="matrix(0.7071 -0.7071 0.7071 0.7071 -5.6855 11.2349)" class="st0" width="8" height="0.7"/>
	</g>
	<g>
		<rect x="11.3" y="14" transform="matrix(0.7071 -0.7071 0.7071 0.7071 -6.1629 13.7547)" class="st0" width="4.5" height="0.7"/>
	</g>
</g>
</svg>
