<?xml version="1.0" encoding="utf-8"?>
<!-- Generator: Adobe Illustrator 24.1.2, SVG Export Plug-In . SVG Version: 6.00 Build 0)  -->
<svg version="1.1" id="Capa_1" xmlns="http://www.w3.org/2000/svg" xmlns:xlink="http://www.w3.org/1999/xlink" x="0px" y="0px"
	 viewBox="0 0 25 25" style="enable-background:new 0 0 25 25;" xml:space="preserve">
<style type="text/css">
	.st0{fill:#848484;}
	.st1{fill:#FFFFFF;}
</style>
<g>
	<g>
		<path class="st0" d="M23.4,9.3H1.6l10.9-6.6L23.4,9.3z M4.2,8.6h16.6l-8.3-5L4.2,8.6z"/>
	</g>
	<g>
		<rect x="10" y="21.6" class="st0" width="4.9" height="0.7"/>
	</g>
	<g>
		<g>
			<rect x="12.1" y="8.9" class="st0" width="0.7" height="3.9"/>
			<rect x="12.1" y="15.7" class="st0" width="0.7" height="6.1"/>
		</g>
		<path class="st0" d="M19.2,16.1H5.8v-3.6h13.3V16.1z M6.6,15.3h11.8v-2.1H6.6V15.3z"/>
	</g>
	<g>
		<g>
			<rect x="21.5" y="13.6" class="st0" width="0.7" height="8.7"/>
		</g>
		<g>
			<rect x="17.4" y="18.5" class="st0" width="0.7" height="3.8"/>
		</g>
		<g>
			<rect x="16.6" y="18.2" class="st0" width="5.3" height="0.7"/>
		</g>
	</g>
	<g>
		<g>
			<line class="st1" x1="3.5" y1="13.6" x2="3.5" y2="22.3"/>
			<rect x="3.1" y="13.6" class="st0" width="0.7" height="8.7"/>
		</g>
		<g>
			<line class="st1" x1="7.5" y1="18.5" x2="7.5" y2="22.3"/>
			<rect x="7.2" y="18.5" class="st0" width="0.7" height="3.8"/>
		</g>
		<g>
			<line class="st1" x1="3.4" y1="18.5" x2="8.7" y2="18.5"/>
			<rect x="3.4" y="18.2" class="st0" width="5.3" height="0.7"/>
		</g>
	</g>
</g>
</svg>
