<?xml version="1.0" encoding="utf-8"?>
<!-- Generator: Adobe Illustrator 24.1.2, SVG Export Plug-In . SVG Version: 6.00 Build 0)  -->
<svg version="1.1" id="Capa_1" xmlns="http://www.w3.org/2000/svg" xmlns:xlink="http://www.w3.org/1999/xlink" x="0px" y="0px"
	 viewBox="0 0 25 25" style="enable-background:new 0 0 25 25;" xml:space="preserve">
<style type="text/css">
	.st0{fill:#848484;}
</style>
<g>
	<g>
		<path class="st0" d="M21.2,22.4H3.8V2.6h17.5V22.4z M4.5,21.6h16V3.4h-16V21.6z"/>
	</g>
	<g>
		<path class="st0" d="M17.5,5.4c-0.2,0-0.4-0.2-0.4-0.4c0-0.2,0.2-0.4,0.4-0.4S18,4.7,18,5C18,5.2,17.8,5.4,17.5,5.4z"/>
	</g>
	<g>
		<path class="st0" d="M19.1,5.4c-0.2,0-0.4-0.2-0.4-0.4c0-0.2,0.2-0.4,0.4-0.4s0.4,0.2,0.4,0.4C19.5,5.2,19.3,5.4,19.1,5.4z"/>
	</g>
	<g>
		<rect x="5.4" y="4.6" class="st0" width="5.1" height="0.7"/>
	</g>
	<g>
		<path class="st0" d="M12.4,20.6c-3.3,0-6.1-2.7-6.1-6.1c0-3.3,2.7-6.1,6.1-6.1l0,0c3.3,0,6.1,2.7,6.1,6.1
			C18.5,17.8,15.8,20.6,12.4,20.6z M12.4,9.2c-2.9,0-5.3,2.4-5.3,5.3c0,2.9,2.4,5.3,5.3,5.3s5.3-2.4,5.3-5.3
			C17.7,11.6,15.4,9.2,12.4,9.2L12.4,9.2z"/>
	</g>
	<g>
		<path class="st0" d="M14,14.5c0-0.9,0.3-1.7,0.9-2.3c-0.6-0.7-1.5-1.1-2.6-1.1c-1.9,0-3.5,1.6-3.5,3.5c0,1.9,1.6,3.5,3.5,3.5
			c1,0,1.9-0.4,2.6-1.1C14.3,16.2,14,15.4,14,14.5z"/>
	</g>
	<g>
		<rect x="4.4" y="6.7" class="st0" width="16.4" height="0.7"/>
	</g>
</g>
</svg>
